<svg width="128" height="112" viewBox="0 0 128 112" fill="none" xmlns="http://www.w3.org/2000/svg">
<path d="M47.0586 17.5576L0.0210877 0C-0.383536 7.35747 5.13508 11.2034 7.94497 12.2067C14.9697 14.6592 30.5365 20.1996 36.6058 22.7413C42.6752 25.283 46.6652 31.4922 47.9016 34.2791L59.5345 59.027C58.8039 51.0564 57.4776 33.7106 56.6684 28.0922C55.8592 22.4737 49.9247 18.7281 47.0586 17.5576Z" fill="white"/>
<path d="M35.7628 24.9151L7.27058 14.3805C9.69832 22.6744 14.8011 26.5315 17.049 27.4233L47.0586 38.6267C45.7099 31.8044 38.9661 26.643 35.7628 24.9151Z" fill="white"/>
<path d="M47.9016 40.6333L19.2407 30.266C19.7802 36.2857 25.7596 40.5776 28.6819 41.971L53.1279 50.8335C52.0602 48.6039 49.7898 43.8104 49.2503 42.4727C48.7108 41.135 48.1263 40.6891 47.9016 40.6333Z" fill="white"/>
<path d="M80.9414 17.5576L127.979 0C128.384 7.35747 122.865 11.2034 120.055 12.2067C113.03 14.6592 97.4635 20.1996 91.3942 22.7413C85.3248 25.283 81.3348 31.4922 80.0984 34.2791L68.4655 59.027C69.1961 51.0564 70.5224 33.7106 71.3316 28.0922C72.1408 22.4737 78.0753 18.7281 80.9414 17.5576Z" fill="white"/>
<path d="M92.2372 24.9151L120.729 14.3805C118.302 22.6744 113.199 26.5315 110.951 27.4233L80.9414 38.6267C82.2901 31.8044 89.0339 26.643 92.2372 24.9151Z" fill="white"/>
<path d="M80.0984 40.6333L108.759 30.266C108.22 36.2857 102.24 40.5776 99.3181 41.971L74.8721 50.8335C75.9398 48.6039 78.2102 43.8104 78.7497 42.4727C79.2892 41.135 79.8737 40.6891 80.0984 40.6333Z" fill="white"/>
<path d="M63.3965 15.1351L62.7595 17.3424V81.3916L63.3965 82.0399L92.5597 64.466L63.3965 15.1351Z" fill="#19A670"/>
<path d="M63.3961 15.1354L34.2329 64.4663L63.3961 82.0404V50.9528V15.1354Z" fill="#18DAA3"/>
<path d="M63.3973 87.6694L63.0383 88.1155V110.931L63.3973 112L92.5781 70.1043L63.3973 87.6694Z" fill="#1AA670"/>
<path d="M63.3964 112V87.6689L34.2332 70.1038L63.3964 112Z" fill="#18DAA3"/>
<path d="M63.3979 82.0399L92.5607 64.4662L63.3979 50.9527V82.0399Z" fill="#137B54"/>
<path d="M34.2332 64.4659L63.3959 82.0398V50.9525L34.2332 64.4659Z" fill="#147B55"/>
</svg>
